<svg t="1737885118626" class="icon" viewBox="0 0 1024 1024" version="1.1" xmlns="http://www.w3.org/2000/svg" p-id="10509" id="mx_n_1737885118627" width="200" height="200"><path d="M170.52358782 450.49182638c-89.78779367 7.77689552-157.65888181 83.42487916-156.95189131 173.21267284 0.7069905 89.78779367 69.99205964 164.02179632 159.77985331 171.09170135v2.12097148l663.15709032-1.41398099c97.56468919-10.60485751 172.50568234-91.90876518 173.91966335-190.18044487-0.7069905-79.18293616-50.1963256-150.5889768-125.13731875-178.16160636v-14.13981003c0-140.69110977-117.36042323-254.5165805-263.00046652-254.5165805-98.27167969-0.7069905-188.76646387 53.73127811-234.72084647 140.69110978-25.45165805-24.03767705-59.38720211-36.76350606-94.02973669-36.76350609-73.52701215-0.7069905-135.03518578 57.97322111-136.44916675 132.20722378 0 19.79573404 4.9489335 38.88447758 13.43281951 55.85224961z m0 0.70699051" fill="#2C2C2C" p-id="10510"></path></svg>