<svg t="1735183612108" class="icon" viewBox="0 0 1024 1024" version="1.1" xmlns="http://www.w3.org/2000/svg" p-id="1450" width="200" height="200">
<path d="M505.6 121.6l396.8 339.2c32 25.6 32 70.4 0 96l-396.8 339.2c-25.6 25.6-70.4 19.2-89.6-6.4l0 0c-25.6-25.6-19.2-70.4 6.4-89.6L768 512 422.4 217.6C396.8 198.4 390.4 153.6 416 128l0 0C441.6 102.4 480 96 505.6 121.6z" fill="#fff" p-id="1451"></path>
<path d="M204.8 121.6l396.8 339.2c32 25.6 32 70.4 0 96l-396.8 339.2c-25.6 25.6-70.4 19.2-89.6-6.4l0 0c-25.6-25.6-19.2-70.4 6.4-89.6L460.8 512 115.2 217.6C89.6 198.4 89.6 153.6 108.8 128l0 0C134.4 102.4 172.8 96 204.8 121.6z" fill="#fff" p-id="1452"></path>
</svg>