<svg t="1738747760234" class="icon" viewBox="0 0 1024 1024" version="1.1" xmlns="http://www.w3.org/2000/svg" p-id="17010" width="200" height="200"><path d="M1024 512c0 282.72-229.28 512-512 512S0 794.72 0 512 229.28 0 512 0s512 229.28 512 512" fill="#5A89FF" p-id="17011"></path><path d="M690.72 812l-24.96-41.76c90.56-54.08 146.72-152.96 146.72-258.24 0-165.6-134.72-300.48-300.48-300.48v-48.64c192.48 0 349.12 156.64 349.12 349.12 0 122.24-65.28 237.28-170.4 300z" fill="#FFFFFF" p-id="17012"></path><path d="M558.72 295.52l-66.56-94.4c-3.68-5.28-5.28-11.84-4.16-18.24 1.12-6.4 4.64-12 9.92-15.84l94.4-66.56 28.16 39.84-74.4 52.48 52.48 74.4-39.84 28.32zM512 861.12c-192.48 0-349.12-156.64-349.12-349.12 0-126.24 68.48-243.04 178.56-304.8l23.84 42.56c-94.88 53.12-153.76 153.6-153.76 262.24 0 165.6 134.72 300.48 300.48 300.48v48.64z" fill="#FFFFFF" p-id="17013" data-spm-anchor-id="a313x.search_index.0.i16.472a3a81Xnqcy5" class=""></path><path d="M431.68 923.2l-28.16-39.84 74.4-52.48-52.48-74.4 39.84-28 66.56 94.4c3.68 5.28 5.28 11.84 4.16 18.24-1.12 6.4-4.64 12-9.92 15.84l-94.4 66.24z" fill="#FFFFFF" p-id="17014"></path></svg>