<svg t="1738739442486" class="icon" viewBox="0 0 1024 1024" version="1.1" xmlns="http://www.w3.org/2000/svg" p-id="13907" width="200" height="200"><path d="M591.74798377 837.09324595c-108.16330683 21.99193588-224.73689529-8.4375-307.56048377-91.23387095-123.35080682-123.37802436-131.78830682-315.99798377-25.33971753-447.81350812v62.51915342c0 18.58971753 15.21471753 33.80443588 33.80443506 33.80443506 18.58971753 0 33.77721753-15.21471753 33.77721835-33.80443506V225.37449595c0-10.125-3.375-18.58971753-10.125-23.65221753a33.3689513 33.3689513 0 0 0-23.67943588-10.125H157.48891152c-18.58971753 0-33.80443588 15.1875-33.80443588 33.77721753s15.21471753 33.80443588 33.80443589 33.80443588h47.30443506C78.04032223 416.3341737 89.85282223 646.16078653 235.19556412 793.19102842c101.38608848 101.35887095 241.63911282 136.85080683 371.76713718 109.82358846 5.0625-1.6875 11.8125-5.0625 15.21471835-8.4375a32.6612906 32.6612906 0 0 0 0-47.35887093c-6.77721753-10.125-20.30443588-13.5-30.42943588-10.125z m297.40826623-82.79637095h-45.61693588c123.35080682-158.84274188 113.22580683-388.66935471-33.80443507-535.67237905C715.09879059 123.98840747 586.68548377 86.80897159 463.3074594 103.71118913c-8.4375 0-15.1875 3.375-21.96471752 10.15221834a32.6612906 32.6612906 0 0 0 0 47.30443506c8.4375 8.4375 20.27721753 11.83971753 32.11693589 8.4375 101.38608848-15.1875 209.54939529 16.90221753 287.2832654 94.6360893 123.35080682 123.37802436 131.78830682 315.99798377 25.3125 447.8135073v-62.5191526c0-18.58971753-15.1875-33.80443588-33.75-33.80443588-18.61693588 0-33.83165342 15.21471753-33.83165258 33.80443588v135.19052435c0 10.125 3.40221753 18.58971753 10.15221753 23.65221753 6.75 6.75 15.21471753 10.125 23.67943505 10.125h135.16330683c18.58971753 0 33.80443588-15.1875 33.80443588-33.77721753s-13.52721753-30.42943588-32.11693588-30.42943588z" fill="#666" p-id="13908"></path></svg>